<?xml version="1.0" encoding="iso-8859-1"?>
<!-- Generator: Adobe Illustrator 17.0.2, SVG Export Plug-In . SVG Version: 6.00 Build 0)  -->
<!DOCTYPE svg PUBLIC "-//W3C//DTD SVG 1.1//EN" "http://www.w3.org/Graphics/SVG/1.1/DTD/svg11.dtd">
<svg version="1.1" id="Layer_1" xmlns="http://www.w3.org/2000/svg" xmlns:xlink="http://www.w3.org/1999/xlink" x="0px" y="0px"
	 width="73.228px" height="67.533px" viewBox="0 0 73.228 67.533" style="enable-background:new 0 0 73.228 67.533;"
	 xml:space="preserve">
<g>
	<path d="M39.106,32.898c-2.386-2.472-3.833-5.58-4.075-8.749c-0.24-3.212,0.784-6.1,2.886-8.13L54.507,0l3.069,3.181l-14.39,13.888
		c-1.034,1.147-1.982,2.883-0.457,4.464c0.084,0.106,0.148,0.197,0.266,0.32c0.321,0.332,0.868,0.732,1.655,0.738
		c1.002,0.008,2.133-0.606,3.361-1.832l0.842-0.841l0.01,0.053L61.699,7.578l3.512,3.642L51.084,24.856
		c-2.242,2.349-1.474,3.85-0.813,4.534c0.112,0.116,0.196,0.182,0.211,0.19c0.652,0.662,1.265,0.943,1.957,0.936
		c1.624-0.024,3.12-1.636,3.134-1.656l0.022,0.019l13.867-13.385l3.064,3.173L55.933,34.684
		C51.622,38.844,44.072,38.043,39.106,32.898L39.106,32.898z"/>
	<g>
		<path d="M23.105,48.347l-2.638-3.501L4.755,60.189c-1.319,1.273-1.356,3.381-0.087,4.696l0.659,0.682
			c1.27,1.319,3.38,1.356,4.7,0.082L25.74,50.307C24.705,49.885,23.786,49.22,23.105,48.347z"/>
	</g>
	<path d="M60.456,65.648c-1.321,1.274-3.429,1.237-4.702-0.084L36.843,45.968c-0.835-0.865-2.44-1.123-3.507-0.562l-1.568,0.835
		c-1.569,0.833-3.732,0.368-4.823-1.035L1.886,11.968c-1.084-1.403-1.122-3.629-0.088-5.064l1.311-1.83
		c0.117-0.161,0.244-0.31,0.381-0.44c1.156-1.114,2.886-1.065,4.028,0.119l53.701,55.539c1.271,1.319,1.235,3.427-0.079,4.697
		L60.456,65.648z"/>
</g>
</svg>
