<?xml version="1.0" encoding="iso-8859-1"?>
<!-- Generator: Adobe Illustrator 17.0.2, SVG Export Plug-In . SVG Version: 6.00 Build 0)  -->
<!DOCTYPE svg PUBLIC "-//W3C//DTD SVG 1.1//EN" "http://www.w3.org/Graphics/SVG/1.1/DTD/svg11.dtd">
<svg version="1.1" id="Layer_1" xmlns="http://www.w3.org/2000/svg" xmlns:xlink="http://www.w3.org/1999/xlink" x="0px" y="0px"
	 width="73.228px" height="67.533px" viewBox="0 0 73.228 67.533" style="enable-background:new 0 0 73.228 67.533;"
	 xml:space="preserve">
<g>
	<g>
		<g>
			<circle cx="36.966" cy="19.113" r="6.036"/>
		</g>
	</g>
	<path d="M69.054,0.584l-3.222-0.521c-2.697-0.435-5.26,1.416-5.694,4.111l-0.599,3.707c-20.264-4.665-39.78-1.702-45.935-0.535
		l-0.513-3.172c-0.435-2.695-2.997-4.546-5.693-4.111L4.176,0.584C1.478,1.019-0.371,3.582,0.063,6.278l1.501,9.296
		c0.435,2.695,2.997,4.546,5.694,4.11l3.223-0.52c2.695-0.437,4.546-2.997,4.111-5.693l-0.311-1.928
		c1.015-0.189,2.467-0.439,4.267-0.693c0.375,5.2,2.025,12.335,7.377,22.669l5.354,9.318c-0.33,0.396-8.793,13.146-9.94,22.339
		c-0.139,1.118,0.714,2.131,1.927,2.324c0.05,0.008,0.1,0.015,0.15,0.019c1.294,0.132,2.459-0.705,2.604-1.868
		c0.846-6.782,8.606-15.69,11.044-18.35c2.627,2.889,10.023,11.521,10.851,18.138c0.096,0.765,0.636,1.382,1.357,1.682
		c0.461,0.301,1.038,0.461,1.648,0.398c0.05-0.004,0.102-0.011,0.15-0.019c1.212-0.193,2.066-1.206,1.927-2.324
		c-1.147-9.192-9.611-21.942-9.941-22.339l5.355-9.318c5.158-9.963,6.873-16.947,7.327-22.094c1.039,0.2,2.081,0.413,3.122,0.656
		l-0.224,1.39c-0.435,2.696,1.415,5.257,4.112,5.693l3.222,0.52c2.697,0.435,5.26-1.415,5.695-4.11l1.499-9.296
		C73.6,3.582,71.751,1.019,69.054,0.584z M41.276,27.297l-0.214,0.059c-0.004,0.002-0.055,0.019-0.135,0.043l-2.917,0.391
		c-0.271,0.042-0.545,0.068-0.815,0.081c-0.01,0-0.018,0.002-0.027,0.003c-0.01-0.001-0.02-0.003-0.028-0.003
		c-0.271-0.013-0.545-0.039-0.817-0.081c-0.163-0.024-0.324-0.021-0.48-0.005c-0.691-0.065-1.355-0.158-1.923-0.25
		c-0.398-0.097-0.641-0.175-0.647-0.179l-0.214-0.059c-7.507-1.578-9.615-11.743-10.209-16.601
		c8.792-1.28,17.185-1.242,23.915-0.783c1.747,0.137,3.496,0.323,5.232,0.555c-0.236,2.454-0.962,7.171-3.12,11.029
		C47.031,24.297,44.528,26.614,41.276,27.297z"/>
</g>
</svg>
